<?xml version="1.0" encoding="UTF-8" standalone="no"?>
    <svg
      xmlns="http://www.w3.org/2000/svg"
      id="svg1978"
      width="69.563"
      height="663.758"
      version="1.1"
      viewBox="0 0 69.563 663.758"
    >
      <defs id="defs1972">
        <path
          id="rect1179"
          d="M587.917 246.678H1253.949V330.96H587.917z"
        ></path>
        <path
          id="rect1063"
          d="M1841.669 -53.782H2432.544V-10.901999999999994H1841.669z"
        ></path>
        <path
          id="rect1041"
          d="M1674.509 46.514H1893.998V97.38900000000001H1674.509z"
        ></path>
        <path
          id="rect981"
          d="M2441.992 892.49H2665.8410000000003V956.447H2441.992z"
        ></path>
        <path
          id="rect869"
          d="M2357.835 265.179H2654.543V589.699H2357.835z"
        ></path>
        <path
          id="rect863"
          d="M2327.16 1104.711H2782.1259999999997V1178.843H2327.16z"
        ></path>
        <path
          id="rect857"
          d="M2411.467 42.153H2814.105V120.64599999999999H2411.467z"
        ></path>
        <path
          id="rect974"
          d="M2411.467 42.153H2814.105V120.64599999999999H2411.467z"
        ></path>
        <path
          id="rect994"
          d="M2441.992 892.49H2665.8410000000003V956.447H2441.992z"
        ></path>
        <path
          id="rect1016"
          d="M2441.992 892.49H2665.8410000000003V956.447H2441.992z"
        ></path>
        <path
          id="rect1027"
          d="M2441.992 892.49H2665.8410000000003V956.447H2441.992z"
        ></path>
        <path
          id="rect1037"
          d="M2441.992 892.49H2665.8410000000003V956.447H2441.992z"
        ></path>
        <path
          id="rect1113"
          d="M2357.835 265.179H2988.706V515.134H2357.835z"
        ></path>
        <path
          id="rect1175"
          d="M2441.992 892.49H2665.8410000000003V956.447H2441.992z"
        ></path>
      </defs>
      <g id="layer1" display="inline" transform="translate(-2244.796 -211.653)">
        <text
          xmlSpace="preserve"
          id="text838"
          x="3029.006"
          y="58.586"
          fontFamily="Maven Pro"
          fontSize="16"
        ></text>
      </g>
      <g id="layer2" transform="translate(-2244.796 -211.653)">
        <g id="g1139">
          <g
            id="g907"
            fillOpacity="1"
            strokeLinecap="square"
            paintOrder="markers stroke fill"
            transform="rotate(35.331 2256.015 505.899)"
          >
            <path
              id="path899"
              fill="#ff0"
              d="M2134.563 276.995a13.082 21.167 0 01-13.082 21.167 13.082 21.167 0 01-13.083-21.167 13.082 21.167 0 0113.082-21.167 13.082 21.167 0 0113.083 21.167z"
              stopColor="#000"
            ></path>
            <path
              id="path901"
              fill="#000"
              d="M2109.637 268.006a13.082 21.167 0 00-.94 4.496h25.567a13.082 21.167 0 00-.94-4.496zm-1.237 8.607a13.082 21.167 0 000 .381 13.082 21.167 0 00.25 4.117h25.664a13.082 21.167 0 00.25-4.117 13.082 21.167 0 000-.38zm.778 7.58a13.082 21.167 0 001.4 4.498h21.807a13.082 21.167 0 001.398-4.498z"
              stopColor="#000"
            ></path>
            <path
              id="rect903"
              fill="#000"
              d="M1755.433 1197.35H1757.36V1210.326H1755.433z"
              stopColor="#000"
              transform="rotate(-27.581)"
            ></path>
            <path
              id="rect905"
              fill="#000"
              d="M-2005.03 -766.999H-2003.103V-754.023H-2005.03z"
              stopColor="#000"
              transform="scale(-1 1) rotate(-27.581)"
            ></path>
          </g>
          <g
            id="g927"
            fillOpacity="1"
            strokeLinecap="square"
            paintOrder="markers stroke fill"
            transform="rotate(-30.478 2538.884 71.567)"
          >
            <path
              id="path919"
              fill="#ff0"
              d="M2134.563 276.995a13.082 21.167 0 01-13.082 21.167 13.082 21.167 0 01-13.083-21.167 13.082 21.167 0 0113.082-21.167 13.082 21.167 0 0113.083 21.167z"
              stopColor="#000"
            ></path>
            <path
              id="path921"
              fill="#000"
              d="M2109.637 268.006a13.082 21.167 0 00-.94 4.496h25.567a13.082 21.167 0 00-.94-4.496zm-1.237 8.607a13.082 21.167 0 000 .381 13.082 21.167 0 00.25 4.117h25.664a13.082 21.167 0 00.25-4.117 13.082 21.167 0 000-.38zm.778 7.58a13.082 21.167 0 001.4 4.498h21.807a13.082 21.167 0 001.398-4.498z"
              stopColor="#000"
            ></path>
            <path
              id="rect923"
              fill="#000"
              d="M1755.433 1197.35H1757.36V1210.326H1755.433z"
              stopColor="#000"
              transform="rotate(-27.581)"
            ></path>
            <path
              id="rect925"
              fill="#000"
              d="M-2005.03 -766.999H-2003.103V-754.023H-2005.03z"
              stopColor="#000"
              transform="scale(-1 1) rotate(-27.581)"
            ></path>
          </g>
          <g
            id="g937"
            fillOpacity="1"
            strokeLinecap="square"
            paintOrder="markers stroke fill"
            transform="rotate(41.366 1697.673 683.053)"
          >
            <path
              id="path929"
              fill="#ff0"
              d="M2134.563 276.995a13.082 21.167 0 01-13.082 21.167 13.082 21.167 0 01-13.083-21.167 13.082 21.167 0 0113.082-21.167 13.082 21.167 0 0113.083 21.167z"
              stopColor="#000"
            ></path>
            <path
              id="path931"
              fill="#000"
              d="M2109.637 268.006a13.082 21.167 0 00-.94 4.496h25.567a13.082 21.167 0 00-.94-4.496zm-1.237 8.607a13.082 21.167 0 000 .381 13.082 21.167 0 00.25 4.117h25.664a13.082 21.167 0 00.25-4.117 13.082 21.167 0 000-.38zm.778 7.58a13.082 21.167 0 001.4 4.498h21.807a13.082 21.167 0 001.398-4.498z"
              stopColor="#000"
            ></path>
            <path
              id="rect933"
              fill="#000"
              d="M1755.433 1197.35H1757.36V1210.326H1755.433z"
              stopColor="#000"
              transform="rotate(-27.581)"
            ></path>
            <path
              id="rect935"
              fill="#000"
              d="M-2005.03 -766.999H-2003.103V-754.023H-2005.03z"
              stopColor="#000"
              transform="scale(-1 1) rotate(-27.581)"
            ></path>
          </g>
          <g
            id="g947"
            fillOpacity="1"
            strokeLinecap="square"
            paintOrder="markers stroke fill"
            transform="rotate(-28.205 3353.683 246.655)"
          >
            <path
              id="path939"
              fill="#ff0"
              d="M2134.563 276.995a13.082 21.167 0 01-13.082 21.167 13.082 21.167 0 01-13.083-21.167 13.082 21.167 0 0113.082-21.167 13.082 21.167 0 0113.083 21.167z"
              stopColor="#000"
            ></path>
            <path
              id="path941"
              fill="#000"
              d="M2109.637 268.006a13.082 21.167 0 00-.94 4.496h25.567a13.082 21.167 0 00-.94-4.496zm-1.237 8.607a13.082 21.167 0 000 .381 13.082 21.167 0 00.25 4.117h25.664a13.082 21.167 0 00.25-4.117 13.082 21.167 0 000-.38zm.778 7.58a13.082 21.167 0 001.4 4.498h21.807a13.082 21.167 0 001.398-4.498z"
              stopColor="#000"
            ></path>
            <path
              id="rect943"
              fill="#000"
              d="M1755.433 1197.35H1757.36V1210.326H1755.433z"
              stopColor="#000"
              transform="rotate(-27.581)"
            ></path>
            <path
              id="rect945"
              fill="#000"
              d="M-2005.03 -766.999H-2003.103V-754.023H-2005.03z"
              stopColor="#000"
              transform="scale(-1 1) rotate(-27.581)"
            ></path>
          </g>
          <path
            id="trail"
            fill="none"
            stroke="#000"
            strokeDasharray="4, 4"
            strokeDashoffset="0"
            strokeLinecap="butt"
            strokeLinejoin="miter"
            strokeMiterlimit="4"
            strokeOpacity="1"
            strokeWidth="1"
            d="M2266.837 682.45a30.011 30.011 0 00-10.22 14.357 30.01 30.01 0 00-.318 17.621 29.816 29.816 0 001.817 4.724 17.698 17.698 0 006.114 6.934 17.698 17.698 0 008.785 2.878c3.088.157 6.278-.548 8.798-2.34 1.26-.896 2.34-2.056 3.096-3.404.758-1.348 1.188-2.885 1.188-4.431 0-2.615-1.251-5.154-3.16-6.941-1.91-1.787-4.429-2.85-7.015-3.234-1.683-.25-3.401-.226-5.088 0a21.676 21.676 0 00-11.265 5.087 21.07 21.07 0 00-5.785 10.953 21.069 21.069 0 001.425 12.304c2.589 5.864 7.664 10.171 11.992 14.9 7.674 8.384 13.24 18.465 18.17 28.707.566 1.178 1.128 2.368 1.453 3.634a10.3 10.3 0 010 5.088c1.212 3.413.943 7.324-.727 10.538-1.841 3.544-5.165 6.059-8.524 8.218-3.36 2.158-6.918 4.128-9.646 7.044-1.196 1.28-2.232 2.763-2.678 4.457a6.418 6.418 0 00-.16 2.603 5.084 5.084 0 001.021 2.389c.214.268.459.512.727.726"
          ></path>
          <path
            id="trail"
            fill="none"
            stroke="#000"
            strokeDasharray="4, 4"
            strokeDashoffset="0"
            strokeLinecap="butt"
            strokeLinejoin="miter"
            strokeMiterlimit="4"
            strokeOpacity="1"
            strokeWidth="1"
            d="M2299.542 486.581l3.27 1.454a24.806 24.806 0 018.72 10.097 24.806 24.806 0 012.183 13.16c-.56 5.097-2.703 9.91-5.44 14.246-2.736 4.336-6.069 8.257-9.276 12.257-3.208 4-6.323 8.128-8.544 12.749-2.222 4.62-3.519 9.803-2.904 14.893.432 3.58 1.793 7.004 3.604 10.122 1.811 3.118 4.069 5.954 6.407 8.699 4.677 5.49 9.818 10.831 12.519 17.519a28.083 28.083 0 011.613 15.263 28.083 28.083 0 01-6.7 13.808"
          ></path>
          <path
            id="trail"
            fill="none"
            stroke="#000"
            strokeDasharray="3, 3"
            strokeDashoffset="0"
            strokeLinecap="butt"
            strokeLinejoin="miter"
            strokeMiterlimit="4"
            strokeOpacity="1"
            strokeWidth="1"
            d="M2266.474 269.273c-14.222 12.12-22.273 31.138-21.077 49.785.968 15.094 7.812 29.668 18.533 40.336 6.014 5.985 13.449 10.877 21.804 12.356 3.542.627 7.357.59 10.538-1.09 2.45-1.295 4.394-3.563 5.184-6.219s.38-5.668-1.187-7.954c-1.2-1.751-3.018-3.03-5.004-3.782-1.987-.751-4.138-.998-6.261-.942-4.113.108-8.203 1.354-11.629 3.634-4.221 2.81-7.324 7.095-9.309 11.762-1.984 4.666-2.913 9.719-3.41 14.766-.285 2.9-.431 5.839 0 8.721.31 2.069.917 4.093 1.091 6.178.131 1.57.015 3.148 0 4.724-.027 2.787.26 5.582 0 8.358-.376 4.033-1.898 7.942-1.817 11.992.03 1.478.275 2.952.727 4.36"
          ></path>
        </g>
      </g>
    </svg>
