    <svg
      xmlns="http://www.w3.org/2000/svg"
      id="svg1978"
      width="277.882"
      height="556.91"
      version="1.1"
      viewBox="0 0 277.882 556.91"
    >
      <defs id="defs1972">
        <path
          id="rect1179"
          d="M587.917 246.678H1253.949V330.96H587.917z"
        ></path>
        <path
          id="rect1063"
          d="M1841.669 -53.782H2432.544V-10.901999999999994H1841.669z"
        ></path>
        <path
          id="rect1041"
          d="M1674.509 46.514H1893.998V97.38900000000001H1674.509z"
        ></path>
        <path
          id="rect981"
          d="M2441.992 892.49H2665.8410000000003V956.447H2441.992z"
        ></path>
        <path
          id="rect869"
          d="M2357.835 265.179H2654.543V589.699H2357.835z"
        ></path>
        <path
          id="rect863"
          d="M2327.16 1104.711H2782.1259999999997V1178.843H2327.16z"
        ></path>
        <path
          id="rect857"
          d="M2411.467 42.153H2814.105V120.64599999999999H2411.467z"
        ></path>
        <path
          id="rect974"
          d="M2411.467 42.153H2814.105V120.64599999999999H2411.467z"
        ></path>
        <path
          id="rect994"
          d="M2441.992 892.49H2665.8410000000003V956.447H2441.992z"
        ></path>
        <path
          id="rect1016"
          d="M2441.992 892.49H2665.8410000000003V956.447H2441.992z"
        ></path>
        <path
          id="rect1027"
          d="M2441.992 892.49H2665.8410000000003V956.447H2441.992z"
        ></path>
        <path
          id="rect1037"
          d="M2441.992 892.49H2665.8410000000003V956.447H2441.992z"
        ></path>
        <path
          id="rect1113"
          d="M2357.835 265.179H2988.706V515.134H2357.835z"
        ></path>
        <path
          id="rect1175"
          d="M2441.992 892.49H2665.8410000000003V956.447H2441.992z"
        ></path>
      </defs>
      <g id="layer1" display="inline" transform="translate(-125.706 -257.08)">
        <text
          xmlSpace="preserve"
          id="text838"
          x="3029.006"
          y="58.586"
          fontFamily="Maven Pro"
          fontSize="16"
        ></text>
      </g>
      <g id="layer2" transform="translate(-125.706 -257.08)">
        <g id="g1134">
          <g
            id="g984"
            fillOpacity="1"
            strokeLinecap="square"
            strokeWidth="0.591"
            paintOrder="markers stroke fill"
            transform="matrix(1.56209 .6484 -.6484 1.56209 -2977.85 -1499.142)"
          >
            <path
              id="path976"
              fill="#ff0"
              d="M2134.563 276.995a13.082 21.167 0 01-13.082 21.167 13.082 21.167 0 01-13.083-21.167 13.082 21.167 0 0113.082-21.167 13.082 21.167 0 0113.083 21.167z"
              stopColor="#000"
            ></path>
            <path
              id="path978"
              fill="#000"
              d="M2109.637 268.006a13.082 21.167 0 00-.94 4.496h25.567a13.082 21.167 0 00-.94-4.496zm-1.237 8.607a13.082 21.167 0 000 .381 13.082 21.167 0 00.25 4.117h25.664a13.082 21.167 0 00.25-4.117 13.082 21.167 0 000-.38zm.778 7.58a13.082 21.167 0 001.4 4.498h21.807a13.082 21.167 0 001.398-4.498z"
              stopColor="#000"
            ></path>
            <path
              id="rect980"
              fill="#000"
              d="M1755.433 1197.35H1757.36V1210.326H1755.433z"
              stopColor="#000"
              transform="rotate(-27.581)"
            ></path>
            <path
              id="rect982"
              fill="#000"
              d="M-2005.03 -766.999H-2003.103V-754.023H-2005.03z"
              stopColor="#000"
              transform="scale(-1 1) rotate(-27.581)"
            ></path>
          </g>
          <g
            id="g1123"
            fillOpacity="1"
            strokeLinecap="square"
            strokeWidth="0.591"
            paintOrder="markers stroke fill"
            transform="matrix(-1.56209 .6484 .6484 1.56209 3513.31 -1250.408)"
          >
            <path
              id="path1115"
              fill="#ff0"
              d="M2134.563 276.995a13.082 21.167 0 01-13.082 21.167 13.082 21.167 0 01-13.083-21.167 13.082 21.167 0 0113.082-21.167 13.082 21.167 0 0113.083 21.167z"
              stopColor="#000"
            ></path>
            <path
              id="path1117"
              fill="#000"
              d="M2109.637 268.006a13.082 21.167 0 00-.94 4.496h25.567a13.082 21.167 0 00-.94-4.496zm-1.237 8.607a13.082 21.167 0 000 .381 13.082 21.167 0 00.25 4.117h25.664a13.082 21.167 0 00.25-4.117 13.082 21.167 0 000-.38zm.778 7.58a13.082 21.167 0 001.4 4.498h21.807a13.082 21.167 0 001.398-4.498z"
              stopColor="#000"
            ></path>
            <path
              id="rect1119"
              fill="#000"
              d="M1755.433 1197.35H1757.36V1210.326H1755.433z"
              stopColor="#000"
              transform="rotate(-27.581)"
            ></path>
            <path
              id="rect1121"
              fill="#000"
              d="M-2005.03 -766.999H-2003.103V-754.023H-2005.03z"
              stopColor="#000"
              transform="scale(-1 1) rotate(-27.581)"
            ></path>
          </g>
          <g
            id="g1133"
            fillOpacity="1"
            strokeLinecap="square"
            strokeWidth="0.591"
            paintOrder="markers stroke fill"
            transform="scale(1.69131) rotate(22.543 643.31 -4730.358)"
          >
            <path
              id="path1125"
              fill="#ff0"
              d="M2134.563 276.995a13.082 21.167 0 01-13.082 21.167 13.082 21.167 0 01-13.083-21.167 13.082 21.167 0 0113.082-21.167 13.082 21.167 0 0113.083 21.167z"
              stopColor="#000"
            ></path>
            <path
              id="path1127"
              fill="#000"
              d="M2109.637 268.006a13.082 21.167 0 00-.94 4.496h25.567a13.082 21.167 0 00-.94-4.496zm-1.237 8.607a13.082 21.167 0 000 .381 13.082 21.167 0 00.25 4.117h25.664a13.082 21.167 0 00.25-4.117 13.082 21.167 0 000-.38zm.778 7.58a13.082 21.167 0 001.4 4.498h21.807a13.082 21.167 0 001.398-4.498z"
              stopColor="#000"
            ></path>
            <path
              id="rect1129"
              fill="#000"
              d="M1755.433 1197.35H1757.36V1210.326H1755.433z"
              stopColor="#000"
              transform="rotate(-27.581)"
            ></path>
            <path
              id="rect1131"
              fill="#000"
              d="M-2005.03 -766.999H-2003.103V-754.023H-2005.03z"
              stopColor="#000"
              transform="scale(-1 1) rotate(-27.581)"
            ></path>
          </g>
          <path
            id="trail"
            fill="none"
            stroke="#000"
            strokeDasharray="8"
            strokeDashoffset="100"
            strokeLinecap="butt"
            strokeLinejoin="miter"
            strokeMiterlimit="4"
            strokeOpacity="1"
            strokeWidth="1"
            d="M154.174 373.101c-5.821 8.33-8.765 18.632-8.223 28.78.53 9.93 4.338 19.566 10.22 27.584 5.882 8.018 13.78 14.454 22.519 19.198 17.48 9.488 37.833 12.17 57.71 12.831 14.92.497 29.93-.044 44.71 2.056 30.17 4.287 58.585 19.95 78.316 43.173"
          ></path>
          <path
            id="trail"
            fill="none"
            stroke="#000"
            strokeDasharray="8, 8"
            strokeDashoffset="0"
            strokeLinecap="butt"
            strokeLinejoin="miter"
            strokeMiterlimit="4"
            strokeOpacity="1"
            strokeWidth="1"
            d="M389.546 618.752c3.897 9.896 4.53 21.046 1.778 31.32-2.752 10.273-8.873 19.615-17.195 26.238-7.478 5.952-16.626 9.682-26.074 11.125-9.447 1.442-19.18.639-28.4-1.875-13.21-3.6-25.198-10.57-37.594-16.383-12.396-5.813-25.862-10.588-39.494-9.312-11.39 1.066-22.316 6.514-30.021 14.97-7.705 8.458-12.116 19.841-12.12 31.282"
          ></path>
        </g>
      </g>
    </svg>