<?xml version="1.0" encoding="UTF-8" standalone="no"?>
    <svg
      xmlns="http://www.w3.org/2000/svg"
      id="svg1978"
      width="67.959"
      height="678.017"
      version="1.1"
      viewBox="0 0 67.959 678.017"
    >
      <defs id="defs1972">
        <path
          id="rect1179"
          d="M587.917 246.678H1253.949V330.96H587.917z"
        ></path>
        <path
          id="rect1063"
          d="M1841.669 -53.782H2432.544V-10.901999999999994H1841.669z"
        ></path>
        <path
          id="rect1041"
          d="M1674.509 46.514H1893.998V97.38900000000001H1674.509z"
        ></path>
        <path
          id="rect981"
          d="M2441.992 892.49H2665.8410000000003V956.447H2441.992z"
        ></path>
        <path
          id="rect869"
          d="M2357.835 265.179H2654.543V589.699H2357.835z"
        ></path>
        <path
          id="rect863"
          d="M2327.16 1104.711H2782.1259999999997V1178.843H2327.16z"
        ></path>
        <path
          id="rect857"
          d="M2411.467 42.153H2814.105V120.64599999999999H2411.467z"
        ></path>
        <path
          id="rect974"
          d="M2411.467 42.153H2814.105V120.64599999999999H2411.467z"
        ></path>
        <path
          id="rect994"
          d="M2441.992 892.49H2665.8410000000003V956.447H2441.992z"
        ></path>
        <path
          id="rect1016"
          d="M2441.992 892.49H2665.8410000000003V956.447H2441.992z"
        ></path>
        <path
          id="rect1027"
          d="M2441.992 892.49H2665.8410000000003V956.447H2441.992z"
        ></path>
        <path
          id="rect1037"
          d="M2441.992 892.49H2665.8410000000003V956.447H2441.992z"
        ></path>
        <path
          id="rect1113"
          d="M2357.835 265.179H2988.706V515.134H2357.835z"
        ></path>
        <path
          id="rect1175"
          d="M2441.992 892.49H2665.8410000000003V956.447H2441.992z"
        ></path>
      </defs>
      <g id="layer1" display="inline" transform="translate(-2788.374 -207.883)">
        <text
          xmlSpace="preserve"
          style={{
          id="text838"
          x="3029.006"
          y="58.586"
          fontFamily="Maven Pro"
          fontSize="16"
        ></text>
      </g>
      <g id="layer2" transform="translate(-2788.374 -207.883)">
        <g id="g1139">
          <g
            id="g917"
            fillOpacity="1"
            strokeLinecap="square"
            paintOrder="markers stroke fill"
            transform="rotate(-30.478 2395.249 -1010.736)"
          >
            <path
              id="path909"
              fill="#ff0"
              d="M2134.563 276.995a13.082 21.167 0 01-13.082 21.167 13.082 21.167 0 01-13.083-21.167 13.082 21.167 0 0113.082-21.167 13.082 21.167 0 0113.083 21.167z"
              stopColor="#000"
            ></path>
            <path
              id="path911"
              fill="#000"
              d="M2109.637 268.006a13.082 21.167 0 00-.94 4.496h25.567a13.082 21.167 0 00-.94-4.496zm-1.237 8.607a13.082 21.167 0 000 .381 13.082 21.167 0 00.25 4.117h25.664a13.082 21.167 0 00.25-4.117 13.082 21.167 0 000-.38zm.778 7.58a13.082 21.167 0 001.4 4.498h21.807a13.082 21.167 0 001.398-4.498z"
              stopColor="#000"
            ></path>
            <path
              id="rect913"
              fill="#000"
              d="M1755.433 1197.35H1757.36V1210.326H1755.433z"
              stopColor="#000"
              transform="rotate(-27.581)"
            ></path>
            <path
              id="rect915"
              fill="#000"
              d="M-2005.03 -766.999H-2003.103V-754.023H-2005.03z"
              stopColor="#000"
              transform="scale(-1 1) rotate(-27.581)"
            ></path>
          </g>
          <g
            id="g957"
            fillOpacity="1"
            strokeLinecap="square"
            paintOrder="markers stroke fill"
            transform="rotate(32.728 2141.026 1549.629)"
          >
            <path
              id="path949"
              fill="#ff0"
              d="M2134.563 276.995a13.082 21.167 0 01-13.082 21.167 13.082 21.167 0 01-13.083-21.167 13.082 21.167 0 0113.082-21.167 13.082 21.167 0 0113.083 21.167z"
              stopColor="#000"
            ></path>
            <path
              id="path951"
              fill="#000"
              d="M2109.637 268.006a13.082 21.167 0 00-.94 4.496h25.567a13.082 21.167 0 00-.94-4.496zm-1.237 8.607a13.082 21.167 0 000 .381 13.082 21.167 0 00.25 4.117h25.664a13.082 21.167 0 00.25-4.117 13.082 21.167 0 000-.38zm.778 7.58a13.082 21.167 0 001.4 4.498h21.807a13.082 21.167 0 001.398-4.498z"
              stopColor="#000"
            ></path>
            <path
              id="rect953"
              fill="#000"
              d="M1755.433 1197.35H1757.36V1210.326H1755.433z"
              stopColor="#000"
              transform="rotate(-27.581)"
            ></path>
            <path
              id="rect955"
              fill="#000"
              d="M-2005.03 -766.999H-2003.103V-754.023H-2005.03z"
              stopColor="#000"
              transform="scale(-1 1) rotate(-27.581)"
            ></path>
          </g>
          <g
            id="g967"
            fillOpacity="1"
            strokeLinecap="square"
            paintOrder="markers stroke fill"
            transform="rotate(32.728 1463.565 1751.243)"
          >
            <path
              id="path959"
              fill="#ff0"
              d="M2134.563 276.995a13.082 21.167 0 01-13.082 21.167 13.082 21.167 0 01-13.083-21.167 13.082 21.167 0 0113.082-21.167 13.082 21.167 0 0113.083 21.167z"
              stopColor="#000"
            ></path>
            <path
              id="path961"
              fill="#000"
              d="M2109.637 268.006a13.082 21.167 0 00-.94 4.496h25.567a13.082 21.167 0 00-.94-4.496zm-1.237 8.607a13.082 21.167 0 000 .381 13.082 21.167 0 00.25 4.117h25.664a13.082 21.167 0 00.25-4.117 13.082 21.167 0 000-.38zm.778 7.58a13.082 21.167 0 001.4 4.498h21.807a13.082 21.167 0 001.398-4.498z"
              stopColor="#000"
            ></path>
            <path
              id="rect963"
              fill="#000"
              d="M1755.433 1197.35H1757.36V1210.326H1755.433z"
              stopColor="#000"
              transform="rotate(-27.581)"
            ></path>
            <path
              id="rect965"
              fill="#000"
              d="M-2005.03 -766.999H-2003.103V-754.023H-2005.03z"
              stopColor="#000"
              transform="scale(-1 1) rotate(-27.581)"
            ></path>
          </g>
          <g
            id="g977"
            fillOpacity="1"
            strokeLinecap="square"
            paintOrder="markers stroke fill"
            transform="rotate(-30.478 3179.603 -797.062)"
          >
            <path
              id="path969"
              fill="#ff0"
              d="M2134.563 276.995a13.082 21.167 0 01-13.082 21.167 13.082 21.167 0 01-13.083-21.167 13.082 21.167 0 0113.082-21.167 13.082 21.167 0 0113.083 21.167z"
              stopColor="#000"
            ></path>
            <path
              id="path971"
              fill="#000"
              d="M2109.637 268.006a13.082 21.167 0 00-.94 4.496h25.567a13.082 21.167 0 00-.94-4.496zm-1.237 8.607a13.082 21.167 0 000 .381 13.082 21.167 0 00.25 4.117h25.664a13.082 21.167 0 00.25-4.117 13.082 21.167 0 000-.38zm.778 7.58a13.082 21.167 0 001.4 4.498h21.807a13.082 21.167 0 001.398-4.498z"
              stopColor="#000"
            ></path>
            <path
              id="rect973"
              fill="#000"
              d="M1755.433 1197.35H1757.36V1210.326H1755.433z"
              stopColor="#000"
              transform="rotate(-27.581)"
            ></path>
            <path
              id="rect975"
              fill="#000"
              d="M-2005.03 -766.999H-2003.103V-754.023H-2005.03z"
              stopColor="#000"
              transform="scale(-1 1) rotate(-27.581)"
            ></path>
          </g>
          <path
            id="trail"
            fill="none"
            stroke="#000"
            strokeDasharray="6, 2"
            strokeDashoffset="0"
            strokeLinecap="butt"
            strokeLinejoin="miter"
            strokeMiterlimit="4"
            strokeOpacity="1"
            strokeWidth="1"
            d="M2826.524 265.693c12.334 23.126 23.126 30.321 22.098 43.683-1.028 13.362-13.362 24.154-17.473 19.529-4.111-4.626-3.597-10.793-1.028-17.473 2.57-6.681 22.612-10.793 25.182 6.166 2.57 16.96-4.663 26.212-11.82 37.002-6.111 9.213-20.105 11.764-25.182 21.585-5.135 9.933-6.612 22.793-3.083 33.404 2.985 8.977 17.232 11.78 19.014 21.07.766 3.993-4.24 11.435-4.24 11.435v0"
          ></path>
          <path
            id="trail"
            fill="none"
            stroke="#000"
            strokeDasharray="4, 4"
            strokeDashoffset="0"
            strokeLinecap="butt"
            strokeLinejoin="miter"
            strokeMiterlimit="4"
            strokeOpacity="1"
            strokeWidth="1"
            d="M2800.314 491.301c-2.57 6.681-10.792 22.612-6.68 32.89 4.11 10.279 16.444 20.557 19.785 32.634 3.34 12.077 3.597 18.758 0 27.238s-11.05 12.59-14.133 27.75c-3.083 15.161.771 27.752.771 27.752"
          ></path>
          <path
            id="trail"
            fill="none"
            stroke="#000"
            strokeDasharray="4, 4"
            strokeDashoffset="0"
            strokeLinecap="butt"
            strokeLinejoin="miter"
            strokeMiterlimit="4"
            strokeOpacity="1"
            strokeWidth="1"
            d="M2827.038 687.36s12.952 15.792 14.363 25.423c1.173 8 1.568-.756-5.37 23.655-9.547 29.842 14.676 56.755 4.368 81.712l-11.049 25.182"
          ></path>
        </g>
      </g>
    </svg>